<svg width="1920" height="1080" viewBox="0 0 1920 1080" fill="none" xmlns="http://www.w3.org/2000/svg">
<rect width="1920" height="1080" fill="white"/>
<path d="M888.016 240.512C888.699 241.237 889.04 241.963 889.04 242.688C889.04 243.456 888.656 244.203 887.888 244.928C886.395 246.379 884.901 246.379 883.408 244.928L866.32 227.264C865.595 226.539 865.232 225.813 865.232 225.088C865.232 224.32 865.595 223.573 866.32 222.848C867.813 221.397 869.328 221.397 870.864 222.848L888.016 240.512ZM846.928 240C837.669 240 830.907 237.867 826.64 233.6C822.373 229.333 820.24 222.571 820.24 213.312V184.128C820.24 174.784 822.373 168 826.64 163.776C830.907 159.509 837.627 157.419 846.8 157.504H862.288C871.547 157.504 878.288 159.637 882.512 163.904C886.779 168.171 888.912 174.933 888.912 184.192V213.312C888.912 222.571 886.779 229.333 882.512 233.6C878.288 237.867 871.547 240 862.288 240H846.928ZM846.928 233.28H862.288C867.195 233.28 871.099 232.64 874 231.36C876.901 230.08 878.992 227.989 880.272 225.088C881.552 222.187 882.192 218.261 882.192 213.312V184.192C882.192 179.285 881.552 175.381 880.272 172.48C878.992 169.579 876.901 167.488 874 166.208C871.099 164.885 867.195 164.224 862.288 164.224H846.8C841.893 164.181 837.989 164.8 835.088 166.08C832.229 167.317 830.16 169.408 828.88 172.352C827.6 175.253 826.96 179.179 826.96 184.128V213.312C826.96 218.261 827.6 222.187 828.88 225.088C830.16 227.989 832.251 230.08 835.152 231.36C838.053 232.64 841.979 233.28 846.928 233.28ZM937.391 240C928.132 240 921.37 237.867 917.103 233.6C912.836 229.333 910.703 222.571 910.703 213.312V160.896C910.703 159.872 911.002 159.061 911.599 158.464C912.239 157.824 913.071 157.504 914.095 157.504C915.119 157.504 915.93 157.824 916.527 158.464C917.124 159.061 917.423 159.872 917.423 160.896V213.312C917.423 218.261 918.063 222.187 919.343 225.088C920.623 227.989 922.714 230.08 925.615 231.36C928.516 232.64 932.442 233.28 937.391 233.28H952.751C957.658 233.28 961.562 232.64 964.463 231.36C967.364 230.08 969.455 227.989 970.735 225.088C972.015 222.187 972.655 218.261 972.655 213.312V160.896C972.655 159.872 972.954 159.061 973.551 158.464C974.191 157.824 975.023 157.504 976.047 157.504C977.071 157.504 977.882 157.824 978.479 158.464C979.076 159.061 979.375 159.872 979.375 160.896V213.312C979.375 222.571 977.242 229.333 972.975 233.6C968.751 237.867 962.01 240 952.751 240H937.391ZM1006.11 240C1005.04 240 1004.21 239.701 1003.61 239.104C1003.02 238.507 1002.72 237.675 1002.72 236.608V160.832C1002.72 159.765 1003.02 158.933 1003.61 158.336C1004.21 157.739 1005.04 157.44 1006.11 157.44C1007.13 157.44 1007.94 157.739 1008.54 158.336C1009.14 158.933 1009.44 159.765 1009.44 160.832V236.608C1009.44 237.675 1009.14 238.507 1008.54 239.104C1007.94 239.701 1007.13 240 1006.11 240ZM1032.38 240C1030.04 240 1028.86 238.869 1028.86 236.608C1028.86 236.011 1028.99 235.456 1029.25 234.944C1029.55 234.389 1029.95 233.728 1030.46 232.96L1083.26 162.944V164.224H1045.7C1042.03 164.224 1039.21 164.949 1037.25 166.4C1035.33 167.808 1034.15 170.091 1033.73 173.248C1033.6 174.315 1033.26 175.125 1032.7 175.68C1032.15 176.235 1031.32 176.512 1030.21 176.512C1029.14 176.512 1028.31 176.213 1027.71 175.616C1027.11 174.976 1026.86 174.101 1026.94 172.992C1027.5 167.915 1029.35 164.075 1032.51 161.472C1035.71 158.827 1040.11 157.504 1045.7 157.504H1088.06C1090.32 157.504 1091.46 158.635 1091.46 160.896C1091.46 161.621 1091.35 162.283 1091.14 162.88C1090.96 163.435 1090.6 164.075 1090.05 164.8L1037.31 235.2V233.28H1076.16C1079.91 233.28 1082.75 232.576 1084.67 231.168C1086.59 229.76 1087.76 227.456 1088.19 224.256C1088.36 223.189 1088.72 222.379 1089.28 221.824C1089.83 221.269 1090.62 220.992 1091.65 220.992C1092.76 220.992 1093.61 221.312 1094.21 221.952C1094.85 222.549 1095.1 223.403 1094.98 224.512C1093.87 234.837 1087.59 240 1076.16 240H1032.38Z" fill="black"/>
<path d="M816.938 286.156H842.688C846.438 286.156 849.688 286.562 852.438 287.375C855.188 288.188 857.469 289.365 859.281 290.906C861.094 292.427 862.438 294.292 863.312 296.5C864.208 298.708 864.656 301.198 864.656 303.969C864.656 306.573 864.219 308.979 863.344 311.188C862.469 313.396 861.125 315.312 859.312 316.938C857.521 318.542 855.25 319.802 852.5 320.719C849.75 321.615 846.5 322.062 842.75 322.062L826.844 322.031V335H816.938V286.156ZM842.938 313.469C844.812 313.469 846.448 313.25 847.844 312.812C849.26 312.354 850.438 311.719 851.375 310.906C852.333 310.073 853.042 309.073 853.5 307.906C853.979 306.719 854.219 305.406 854.219 303.969C854.219 301.073 853.271 298.823 851.375 297.219C849.5 295.594 846.688 294.781 842.938 294.781H826.844V313.469H842.938ZM872.625 310.438C872.625 306.75 873.302 303.375 874.656 300.312C876.01 297.25 877.906 294.625 880.344 292.438C882.802 290.229 885.74 288.521 889.156 287.312C892.594 286.104 896.396 285.5 900.562 285.5C904.708 285.5 908.5 286.104 911.938 287.312C915.375 288.521 918.312 290.229 920.75 292.438C923.208 294.625 925.115 297.25 926.469 300.312C927.823 303.375 928.5 306.75 928.5 310.438C928.5 314.146 927.823 317.552 926.469 320.656C925.115 323.74 923.208 326.396 920.75 328.625C918.312 330.854 915.375 332.594 911.938 333.844C908.5 335.073 904.708 335.688 900.562 335.688C896.396 335.688 892.594 335.073 889.156 333.844C885.74 332.594 882.802 330.854 880.344 328.625C877.906 326.396 876.01 323.74 874.656 320.656C873.302 317.552 872.625 314.146 872.625 310.438ZM882.531 310.438C882.531 312.958 882.979 315.229 883.875 317.25C884.792 319.271 886.052 321 887.656 322.438C889.281 323.854 891.188 324.948 893.375 325.719C895.583 326.49 897.979 326.875 900.562 326.875C903.146 326.875 905.531 326.49 907.719 325.719C909.927 324.948 911.833 323.854 913.438 322.438C915.042 321 916.302 319.271 917.219 317.25C918.135 315.229 918.594 312.958 918.594 310.438C918.594 307.917 918.135 305.656 917.219 303.656C916.302 301.656 915.042 299.969 913.438 298.594C911.833 297.198 909.927 296.135 907.719 295.406C905.531 294.677 903.146 294.312 900.562 294.312C897.979 294.312 895.583 294.677 893.375 295.406C891.188 296.135 889.281 297.198 887.656 298.594C886.052 299.969 884.792 301.656 883.875 303.656C882.979 305.656 882.531 307.917 882.531 310.438ZM936.625 310.438C936.625 306.75 937.302 303.375 938.656 300.312C940.01 297.25 941.906 294.625 944.344 292.438C946.802 290.229 949.74 288.521 953.156 287.312C956.594 286.104 960.396 285.5 964.562 285.5C968.708 285.5 972.5 286.104 975.938 287.312C979.375 288.521 982.312 290.229 984.75 292.438C987.208 294.625 989.115 297.25 990.469 300.312C991.823 303.375 992.5 306.75 992.5 310.438C992.5 314.146 991.823 317.552 990.469 320.656C989.115 323.74 987.208 326.396 984.75 328.625C982.312 330.854 979.375 332.594 975.938 333.844C972.5 335.073 968.708 335.688 964.562 335.688C960.396 335.688 956.594 335.073 953.156 333.844C949.74 332.594 946.802 330.854 944.344 328.625C941.906 326.396 940.01 323.74 938.656 320.656C937.302 317.552 936.625 314.146 936.625 310.438ZM946.531 310.438C946.531 312.958 946.979 315.229 947.875 317.25C948.792 319.271 950.052 321 951.656 322.438C953.281 323.854 955.188 324.948 957.375 325.719C959.583 326.49 961.979 326.875 964.562 326.875C967.146 326.875 969.531 326.49 971.719 325.719C973.927 324.948 975.833 323.854 977.438 322.438C979.042 321 980.302 319.271 981.219 317.25C982.135 315.229 982.594 312.958 982.594 310.438C982.594 307.917 982.135 305.656 981.219 303.656C980.302 301.656 979.042 299.969 977.438 298.594C975.833 297.198 973.927 296.135 971.719 295.406C969.531 294.677 967.146 294.312 964.562 294.312C961.979 294.312 959.583 294.677 957.375 295.406C955.188 296.135 953.281 297.198 951.656 298.594C950.052 299.969 948.792 301.656 947.875 303.656C946.979 305.656 946.531 307.917 946.531 310.438ZM1003.5 286.156H1013.41V326.312H1041.81V335H1003.5V286.156ZM1053.72 320.469C1055.49 321.469 1057.28 322.375 1059.09 323.188C1060.93 323.979 1062.82 324.656 1064.78 325.219C1066.74 325.76 1068.79 326.177 1070.94 326.469C1073.1 326.76 1075.41 326.906 1077.84 326.906C1080.78 326.906 1083.28 326.719 1085.34 326.344C1087.41 325.948 1089.08 325.417 1090.38 324.75C1091.69 324.062 1092.64 323.25 1093.22 322.312C1093.82 321.375 1094.12 320.354 1094.12 319.25C1094.12 317.479 1093.39 316.083 1091.91 315.062C1090.43 314.021 1088.15 313.5 1085.06 313.5C1083.71 313.5 1082.28 313.594 1080.78 313.781C1079.28 313.948 1077.76 314.135 1076.22 314.344C1074.7 314.552 1073.19 314.75 1071.69 314.938C1070.21 315.104 1068.81 315.188 1067.5 315.188C1065.31 315.188 1063.21 314.906 1061.19 314.344C1059.19 313.781 1057.41 312.938 1055.84 311.812C1054.3 310.688 1053.07 309.281 1052.16 307.594C1051.24 305.906 1050.78 303.938 1050.78 301.688C1050.78 300.354 1050.96 299.031 1051.31 297.719C1051.69 296.406 1052.27 295.156 1053.06 293.969C1053.88 292.76 1054.92 291.646 1056.19 290.625C1057.46 289.583 1058.99 288.688 1060.78 287.938C1062.59 287.188 1064.68 286.604 1067.03 286.188C1069.41 285.75 1072.1 285.531 1075.12 285.531C1077.31 285.531 1079.51 285.656 1081.72 285.906C1083.93 286.135 1086.07 286.469 1088.16 286.906C1090.26 287.344 1092.28 287.875 1094.22 288.5C1096.16 289.104 1097.96 289.781 1099.62 290.531L1095.28 298.531C1093.91 297.927 1092.43 297.375 1090.84 296.875C1089.26 296.354 1087.6 295.906 1085.88 295.531C1084.15 295.156 1082.35 294.865 1080.5 294.656C1078.67 294.427 1076.79 294.312 1074.88 294.312C1072.15 294.312 1069.9 294.51 1068.12 294.906C1066.38 295.302 1064.98 295.812 1063.94 296.438C1062.9 297.042 1062.17 297.729 1061.75 298.5C1061.35 299.25 1061.16 300 1061.16 300.75C1061.16 302.208 1061.81 303.406 1063.12 304.344C1064.44 305.26 1066.44 305.719 1069.12 305.719C1070.21 305.719 1071.45 305.646 1072.84 305.5C1074.26 305.333 1075.74 305.156 1077.28 304.969C1078.84 304.781 1080.43 304.615 1082.03 304.469C1083.66 304.302 1085.23 304.219 1086.75 304.219C1089.62 304.219 1092.17 304.542 1094.38 305.188C1096.6 305.833 1098.47 306.76 1099.97 307.969C1101.47 309.156 1102.6 310.604 1103.38 312.312C1104.15 314 1104.53 315.896 1104.53 318C1104.53 320.812 1103.88 323.323 1102.56 325.531C1101.27 327.719 1099.42 329.573 1097 331.094C1094.6 332.594 1091.71 333.74 1088.31 334.531C1084.92 335.302 1081.14 335.688 1076.97 335.688C1074.22 335.688 1071.53 335.51 1068.91 335.156C1066.28 334.823 1063.76 334.344 1061.34 333.719C1058.95 333.073 1056.66 332.312 1054.47 331.438C1052.3 330.542 1050.29 329.562 1048.44 328.5L1053.72 320.469Z" fill="black"/>
<path d="M722 570.5C785.29 570.5 842.907 579.36 884.965 593.904C905.958 601.164 923.483 609.979 935.908 620.138C948.278 630.251 956.5 642.496 956.5 656.5C956.5 670.504 948.278 682.749 935.908 692.862C923.483 703.021 905.958 711.836 884.965 719.096C842.907 733.64 785.29 742.5 722 742.5C658.71 742.5 601.093 733.64 559.035 719.096C538.042 711.836 520.517 703.021 508.092 692.862C495.722 682.749 487.5 670.504 487.5 656.5C487.5 642.496 495.722 630.251 508.092 620.138C520.517 609.979 538.042 601.164 559.035 593.904C601.093 579.36 658.71 570.5 722 570.5Z" fill="#0A88FF" stroke="#0A88FF" stroke-width="15"/>
<rect x="480" y="517" width="484" height="140" fill="#0A88FF"/>
<path d="M722 430.5C785.29 430.5 842.907 439.36 884.965 453.904C905.958 461.164 923.483 469.979 935.908 480.138C948.278 490.251 956.5 502.496 956.5 516.5C956.5 530.504 948.278 542.749 935.908 552.862C923.483 563.021 905.958 571.836 884.965 579.096C842.907 593.64 785.29 602.5 722 602.5C658.71 602.5 601.093 593.64 559.035 579.096C538.042 571.836 520.517 563.021 508.092 552.862C495.722 542.749 487.5 530.504 487.5 516.5C487.5 502.496 495.722 490.251 508.092 480.138C520.517 469.979 538.042 461.164 559.035 453.904C601.093 439.36 658.71 430.5 722 430.5Z" fill="#9AFFFF" stroke="#0A88FF" stroke-width="15"/>
<path d="M989 663.846C989 663.846 989 569.847 989 525.346C989 480.846 935 486.346 935 525.346" stroke="#929292" stroke-width="5" stroke-linecap="round"/>
<path d="M971 680.846C971 636.346 971 586.847 971 542.346C971 497.846 917 503.346 917 542.346" stroke="#929292" stroke-width="5" stroke-linecap="round"/>
<path d="M971 648L989 630M971 611.5L989 593.5M971 570.5L989 552.5" stroke="#929292" stroke-width="5" stroke-linecap="round"/>
<rect x="1327" y="453" width="144" height="98" rx="12" stroke="#3BC9B1" stroke-width="4"/>
<path d="M1351.44 489.936C1349.99 489.936 1349.27 489.179 1349.27 487.664V486.224C1349.27 484.752 1349.99 484.016 1351.44 484.016H1352.92C1354.35 484.016 1355.06 484.752 1355.06 486.224V487.664C1355.06 489.179 1354.35 489.936 1352.92 489.936H1351.44ZM1345.14 538.8C1344.61 538.8 1344.18 538.651 1343.86 538.352C1343.54 538.075 1343.38 537.659 1343.38 537.104C1343.38 536.549 1343.55 536.133 1343.89 535.856C1344.21 535.579 1344.63 535.44 1345.14 535.44C1347.19 535.44 1348.59 535.056 1349.33 534.288C1350.1 533.52 1350.48 532.112 1350.48 530.064V497.424C1350.48 496.315 1351.05 495.76 1352.18 495.76C1353.29 495.76 1353.84 496.315 1353.84 497.424V530.064C1353.84 533.051 1353.14 535.248 1351.73 536.656C1350.32 538.085 1348.13 538.8 1345.14 538.8ZM1376.48 526C1372.5 526 1369.57 525.083 1367.72 523.248C1365.86 521.392 1364.93 518.48 1364.93 514.512V507.28C1364.93 503.248 1365.86 500.315 1367.72 498.48C1369.57 496.624 1372.5 495.717 1376.48 495.76H1381.73C1385.72 495.76 1388.63 496.688 1390.47 498.544C1392.32 500.379 1393.25 503.291 1393.25 507.28V514.448C1393.25 518.437 1392.32 521.36 1390.47 523.216C1388.63 525.072 1385.72 526 1381.73 526H1376.48ZM1368.29 514.512C1368.29 517.52 1368.89 519.632 1370.08 520.848C1371.3 522.043 1373.43 522.64 1376.48 522.64H1381.73C1384.78 522.64 1386.91 522.043 1388.1 520.848C1389.3 519.632 1389.89 517.499 1389.89 514.448V507.28C1389.89 504.229 1389.3 502.107 1388.1 500.912C1386.91 499.717 1384.78 499.12 1381.73 499.12H1376.48C1374.44 499.099 1372.82 499.344 1371.62 499.856C1370.43 500.368 1369.57 501.221 1369.06 502.416C1368.55 503.611 1368.29 505.232 1368.29 507.28V514.512ZM1405.32 489.936C1403.85 489.936 1403.11 489.179 1403.11 487.664V486.224C1403.11 484.752 1403.85 484.016 1405.32 484.016H1406.76C1408.19 484.016 1408.9 484.752 1408.9 486.224V487.664C1408.9 489.179 1408.19 489.936 1406.76 489.936H1405.32ZM1406.06 526C1404.92 526 1404.36 525.435 1404.36 524.304V497.424C1404.36 496.315 1404.92 495.76 1406.06 495.76C1407.16 495.76 1407.72 496.315 1407.72 497.424V524.304C1407.72 525.435 1407.16 526 1406.06 526ZM1421.37 526C1420.24 526 1419.67 525.435 1419.67 524.304V497.424C1419.67 496.315 1420.24 495.76 1421.37 495.76C1422.48 495.76 1423.03 496.315 1423.03 497.424V500.496C1425.06 497.339 1428.73 495.76 1434.04 495.76H1435.83C1439.82 495.76 1442.73 496.688 1444.57 498.544C1446.42 500.379 1447.35 503.291 1447.35 507.28V524.304C1447.35 525.435 1446.8 526 1445.69 526C1444.56 526 1443.99 525.435 1443.99 524.304V507.28C1443.99 504.229 1443.38 502.107 1442.17 500.912C1440.97 499.717 1438.86 499.12 1435.83 499.12H1434.04C1430.73 499.12 1428.13 499.643 1426.23 500.688C1424.33 501.733 1423.27 503.365 1423.03 505.584V524.304C1423.03 525.435 1422.48 526 1421.37 526Z" fill="#3BC9B1"/>
<rect x="1058" y="453" width="228" height="98" rx="12" stroke="#3BC9B1" stroke-width="4"/>
<path d="M1090.67 526C1086.68 526 1083.76 525.072 1081.9 523.216C1080.05 521.36 1079.12 518.437 1079.12 514.448V507.216C1079.12 503.227 1080.04 500.315 1081.87 498.48C1083.73 496.624 1086.66 495.717 1090.67 495.76H1095.92C1099.06 495.76 1101.45 496.293 1103.09 497.36C1104.75 498.405 1105.74 500.059 1106.06 502.32C1106.13 502.896 1106 503.333 1105.68 503.632C1105.38 503.931 1104.95 504.08 1104.4 504.08C1103.89 504.08 1103.5 503.952 1103.25 503.696C1102.99 503.419 1102.8 503.024 1102.67 502.512C1102.44 501.275 1101.81 500.4 1100.78 499.888C1099.76 499.376 1098.14 499.12 1095.92 499.12H1090.67C1087.62 499.077 1085.49 499.653 1084.27 500.848C1083.08 502.021 1082.48 504.144 1082.48 507.216V514.448C1082.48 517.499 1083.08 519.632 1084.27 520.848C1085.49 522.043 1087.62 522.64 1090.67 522.64H1095.92C1098.14 522.64 1099.76 522.384 1100.78 521.872C1101.81 521.36 1102.44 520.475 1102.67 519.216C1102.8 518.704 1102.99 518.32 1103.25 518.064C1103.5 517.787 1103.89 517.648 1104.4 517.648C1104.95 517.648 1105.38 517.808 1105.68 518.128C1106 518.427 1106.13 518.853 1106.06 519.408C1105.74 521.669 1104.75 523.333 1103.09 524.4C1101.45 525.467 1099.06 526 1095.92 526H1090.67ZM1118.24 526C1117.11 526 1116.55 525.435 1116.55 524.304V497.424C1116.55 496.315 1117.11 495.76 1118.24 495.76C1119.35 495.76 1119.91 496.315 1119.91 497.424V502.352C1121.02 500.219 1122.62 498.587 1124.71 497.456C1126.82 496.325 1129.31 495.76 1132.19 495.76C1133.33 495.76 1133.89 496.315 1133.89 497.424C1133.89 498.555 1133.33 499.12 1132.19 499.12C1128.4 499.12 1125.45 499.984 1123.36 501.712C1121.27 503.419 1120.12 505.861 1119.91 509.04V524.304C1119.91 525.435 1119.35 526 1118.24 526ZM1141.92 512.176V514.512C1141.92 517.52 1142.51 519.632 1143.71 520.848C1144.93 522.043 1147.06 522.64 1150.11 522.64H1155.36C1158.05 522.64 1160 522.299 1161.21 521.616C1162.45 520.912 1163.19 519.707 1163.42 518C1163.51 517.467 1163.68 517.061 1163.93 516.784C1164.21 516.507 1164.63 516.368 1165.18 516.368C1165.74 516.368 1166.15 516.528 1166.43 516.848C1166.73 517.147 1166.85 517.573 1166.78 518.128C1166.5 520.816 1165.43 522.8 1163.55 524.08C1161.67 525.36 1158.94 526 1155.36 526H1150.11C1146.12 526 1143.2 525.083 1141.34 523.248C1139.49 521.392 1138.56 518.48 1138.56 514.512V507.28C1138.56 503.248 1139.49 500.315 1141.34 498.48C1143.2 496.624 1146.12 495.717 1150.11 495.76H1155.36C1159.35 495.76 1162.26 496.688 1164.09 498.544C1165.95 500.379 1166.88 503.291 1166.88 507.28V510.48C1166.88 511.611 1166.32 512.176 1165.21 512.176H1141.92ZM1150.11 499.12C1147.06 499.077 1144.93 499.664 1143.71 500.88C1142.51 502.075 1141.92 504.208 1141.92 507.28V508.816H1163.52V507.28C1163.52 504.229 1162.92 502.107 1161.73 500.912C1160.53 499.717 1158.41 499.12 1155.36 499.12H1150.11ZM1186.98 526C1183.65 526 1181.21 525.232 1179.65 523.696C1178.11 522.139 1177.34 519.696 1177.34 516.368C1177.34 513.04 1178.12 510.597 1179.68 509.04C1181.24 507.483 1183.67 506.704 1186.98 506.704H1201.54C1201.49 503.888 1200.85 501.925 1199.62 500.816C1198.4 499.685 1196.32 499.12 1193.38 499.12H1189.66C1186.95 499.12 1184.97 499.408 1183.71 499.984C1182.45 500.56 1181.67 501.541 1181.38 502.928C1181.23 503.461 1181.02 503.856 1180.77 504.112C1180.53 504.347 1180.15 504.464 1179.62 504.464C1179.06 504.464 1178.62 504.315 1178.3 504.016C1178.01 503.696 1177.9 503.269 1177.98 502.736C1178.26 500.304 1179.36 498.533 1181.28 497.424C1183.22 496.315 1186.02 495.76 1189.66 495.76H1193.38C1197.37 495.76 1200.28 496.688 1202.11 498.544C1203.97 500.379 1204.9 503.291 1204.9 507.28V524.304C1204.9 525.435 1204.34 526 1203.23 526C1202.1 526 1201.54 525.435 1201.54 524.304V521.136C1199.49 524.379 1195.83 526 1190.56 526H1186.98ZM1186.98 522.64H1190.56C1192.63 522.64 1194.44 522.416 1196 521.968C1197.58 521.499 1198.85 520.752 1199.81 519.728C1200.77 518.704 1201.34 517.339 1201.54 515.632V510.064H1186.98C1184.61 510.064 1182.97 510.523 1182.05 511.44C1181.15 512.336 1180.7 513.979 1180.7 516.368C1180.7 518.736 1181.15 520.379 1182.05 521.296C1182.97 522.192 1184.61 522.64 1186.98 522.64ZM1228.65 526C1224.72 526 1221.85 525.093 1220.04 523.28C1218.23 521.467 1217.32 518.608 1217.32 514.704V499.12H1213.51C1212.38 499.12 1211.82 498.555 1211.82 497.424C1211.82 496.315 1212.38 495.76 1213.51 495.76H1217.32V488.88C1217.32 487.749 1217.88 487.184 1218.98 487.184C1220.12 487.184 1220.68 487.749 1220.68 488.88V495.76H1228.71C1229.82 495.76 1230.38 496.315 1230.38 497.424C1230.38 498.555 1229.82 499.12 1228.71 499.12H1220.68V514.704C1220.68 517.691 1221.26 519.76 1222.41 520.912C1223.58 522.064 1225.66 522.64 1228.65 522.64C1229.27 522.64 1229.7 522.779 1229.96 523.056C1230.24 523.333 1230.38 523.749 1230.38 524.304C1230.38 525.435 1229.8 526 1228.65 526ZM1239.17 512.176V514.512C1239.17 517.52 1239.76 519.632 1240.96 520.848C1242.18 522.043 1244.31 522.64 1247.36 522.64H1252.61C1255.3 522.64 1257.25 522.299 1258.46 521.616C1259.7 520.912 1260.44 519.707 1260.67 518C1260.76 517.467 1260.93 517.061 1261.18 516.784C1261.46 516.507 1261.88 516.368 1262.43 516.368C1262.99 516.368 1263.4 516.528 1263.68 516.848C1263.98 517.147 1264.1 517.573 1264.03 518.128C1263.75 520.816 1262.68 522.8 1260.8 524.08C1258.92 525.36 1256.19 526 1252.61 526H1247.36C1243.37 526 1240.45 525.083 1238.59 523.248C1236.74 521.392 1235.81 518.48 1235.81 514.512V507.28C1235.81 503.248 1236.74 500.315 1238.59 498.48C1240.45 496.624 1243.37 495.717 1247.36 495.76H1252.61C1256.6 495.76 1259.51 496.688 1261.34 498.544C1263.2 500.379 1264.13 503.291 1264.13 507.28V510.48C1264.13 511.611 1263.57 512.176 1262.46 512.176H1239.17ZM1247.36 499.12C1244.31 499.077 1242.18 499.664 1240.96 500.88C1239.76 502.075 1239.17 504.208 1239.17 507.28V508.816H1260.77V507.28C1260.77 504.229 1260.17 502.107 1258.98 500.912C1257.78 499.717 1255.66 499.12 1252.61 499.12H1247.36Z" fill="#3BC9B1"/>
<rect x="1562" y="25" width="126" height="69" rx="12" stroke="#6C6C6C" stroke-width="4"/>
<path d="M1587.24 74C1585.35 74 1583.95 73.56 1583.06 72.68C1582.18 71.8 1581.74 70.42 1581.74 68.54V47.3C1581.74 46.6067 1582.09 46.26 1582.8 46.26C1583.49 46.26 1583.84 46.6067 1583.84 47.3V68.54C1583.84 69.8333 1584.08 70.72 1584.56 71.2C1585.04 71.6667 1585.93 71.9 1587.22 71.9C1587.94 71.9 1588.3 72.2467 1588.3 72.94C1588.31 73.6467 1587.96 74 1587.24 74ZM1599.28 74C1596.79 74 1594.96 73.4267 1593.8 72.28C1592.64 71.12 1592.06 69.3 1592.06 66.82V62.3C1592.06 59.78 1592.64 57.9467 1593.8 56.8C1594.96 55.64 1596.79 55.0733 1599.28 55.1H1602.56C1605.05 55.1 1606.87 55.68 1608.02 56.84C1609.18 57.9867 1609.76 59.8067 1609.76 62.3V66.78C1609.76 69.2733 1609.18 71.1 1608.02 72.26C1606.87 73.42 1605.05 74 1602.56 74H1599.28ZM1594.16 66.82C1594.16 68.7 1594.53 70.02 1595.28 70.78C1596.04 71.5267 1597.37 71.9 1599.28 71.9H1602.56C1604.47 71.9 1605.79 71.5267 1606.54 70.78C1607.29 70.02 1607.66 68.6867 1607.66 66.78V62.3C1607.66 60.3933 1607.29 59.0667 1606.54 58.32C1605.79 57.5733 1604.47 57.2 1602.56 57.2H1599.28C1598 57.1867 1596.99 57.34 1596.24 57.66C1595.49 57.98 1594.96 58.5133 1594.64 59.26C1594.32 60.0067 1594.16 61.02 1594.16 62.3V66.82ZM1621.3 82C1619.73 82 1618.53 81.6733 1617.7 81.02C1616.87 80.38 1616.39 79.3667 1616.24 77.98C1616.2 77.6333 1616.27 77.36 1616.46 77.16C1616.65 76.96 1616.91 76.86 1617.24 76.86C1617.57 76.86 1617.83 76.9467 1618 77.12C1618.17 77.2933 1618.29 77.5533 1618.34 77.9C1618.43 78.6733 1618.71 79.2 1619.16 79.48C1619.61 79.76 1620.33 79.9 1621.3 79.9H1628.74C1629.91 79.9 1630.71 79.6867 1631.12 79.26C1631.55 78.8333 1631.76 78.0333 1631.76 76.86V71.14C1631.15 72.0733 1630.28 72.7867 1629.16 73.28C1628.04 73.76 1626.62 74 1624.9 74H1623.38C1620.89 74 1619.06 73.4267 1617.9 72.28C1616.74 71.12 1616.16 69.3 1616.16 66.82V62.3C1616.16 59.78 1616.73 57.9533 1617.88 56.82C1619.04 55.6733 1620.87 55.1 1623.38 55.1H1626.66C1627.97 55.1 1629.03 55.2733 1629.84 55.62C1630.65 55.9667 1631.29 56.5067 1631.76 57.24V56.14C1631.76 55.4467 1632.11 55.1 1632.82 55.1C1633.51 55.1 1633.86 55.4467 1633.86 56.14V76.86C1633.86 78.62 1633.45 79.9133 1632.62 80.74C1631.79 81.58 1630.5 82 1628.74 82H1621.3ZM1623.38 71.9H1624.9C1626.98 71.9 1628.64 71.5733 1629.88 70.92C1631.13 70.2667 1631.76 69.2733 1631.76 67.94V61.26C1631.76 59.7533 1631.34 58.7 1630.5 58.1C1629.66 57.5 1628.38 57.2 1626.66 57.2H1623.38C1621.47 57.2 1620.14 57.5733 1619.38 58.32C1618.63 59.0533 1618.26 60.38 1618.26 62.3V66.82C1618.26 68.7 1618.63 70.02 1619.38 70.78C1620.14 71.5267 1621.47 71.9 1623.38 71.9ZM1641.6 51.46C1640.68 51.46 1640.22 50.9867 1640.22 50.04V49.14C1640.22 48.22 1640.68 47.76 1641.6 47.76H1642.5C1643.39 47.76 1643.84 48.22 1643.84 49.14V50.04C1643.84 50.9867 1643.39 51.46 1642.5 51.46H1641.6ZM1642.06 74C1641.35 74 1641 73.6467 1641 72.94V56.14C1641 55.4467 1641.35 55.1 1642.06 55.1C1642.75 55.1 1643.1 55.4467 1643.1 56.14V72.94C1643.1 73.6467 1642.75 74 1642.06 74ZM1651.63 74C1650.92 74 1650.57 73.6467 1650.57 72.94V56.14C1650.57 55.4467 1650.92 55.1 1651.63 55.1C1652.32 55.1 1652.67 55.4467 1652.67 56.14V58.06C1653.93 56.0867 1656.23 55.1 1659.55 55.1H1660.67C1663.16 55.1 1664.98 55.68 1666.13 56.84C1667.29 57.9867 1667.87 59.8067 1667.87 62.3V72.94C1667.87 73.6467 1667.52 74 1666.83 74C1666.12 74 1665.77 73.6467 1665.77 72.94V62.3C1665.77 60.3933 1665.39 59.0667 1664.63 58.32C1663.88 57.5733 1662.56 57.2 1660.67 57.2H1659.55C1657.48 57.2 1655.85 57.5267 1654.67 58.18C1653.48 58.8333 1652.81 59.8533 1652.67 61.24V72.94C1652.67 73.6467 1652.32 74 1651.63 74Z" fill="#6C6C6C"/>
<rect x="1727" y="25" width="172" height="69" rx="12" stroke="#6C6C6C" stroke-width="4"/>
<path d="M1750.88 73.96C1749.24 73.96 1747.99 73.6133 1747.12 72.92C1746.25 72.2133 1745.73 71.14 1745.56 69.7C1745.52 69.3533 1745.59 69.0867 1745.78 68.9C1745.97 68.7 1746.24 68.6 1746.6 68.6C1746.93 68.6 1747.18 68.6867 1747.34 68.86C1747.51 69.0333 1747.63 69.2933 1747.68 69.64C1747.8 70.4667 1748.1 71.0467 1748.58 71.38C1749.07 71.7 1749.84 71.86 1750.88 71.86H1757.44C1758.68 71.86 1759.53 71.6267 1760 71.16C1760.47 70.6933 1760.7 69.84 1760.7 68.6C1760.7 67.3467 1760.47 66.4867 1760 66.02C1759.53 65.5533 1758.68 65.32 1757.44 65.32H1750.96C1749.23 65.32 1747.93 64.9067 1747.08 64.08C1746.24 63.24 1745.82 61.9533 1745.82 60.22C1745.82 58.4467 1746.24 57.1467 1747.08 56.32C1747.92 55.48 1749.21 55.06 1750.96 55.06H1757.24C1760.25 55.06 1761.93 56.3933 1762.26 59.06C1762.31 59.4067 1762.24 59.68 1762.04 59.88C1761.85 60.0667 1761.59 60.16 1761.24 60.16C1760.91 60.16 1760.65 60.0733 1760.48 59.9C1760.32 59.7267 1760.21 59.4733 1760.14 59.14C1760.05 58.3933 1759.77 57.88 1759.32 57.6C1758.88 57.3067 1758.19 57.16 1757.24 57.16H1750.96C1749.8 57.16 1749 57.3733 1748.56 57.8C1748.13 58.2267 1747.92 59.0333 1747.92 60.22C1747.92 61.3533 1748.14 62.14 1748.58 62.58C1749.02 63.0067 1749.81 63.22 1750.96 63.22H1757.44C1759.28 63.22 1760.63 63.66 1761.5 64.54C1762.37 65.4067 1762.8 66.76 1762.8 68.6C1762.8 70.4267 1762.37 71.78 1761.5 72.66C1760.63 73.5267 1759.28 73.96 1757.44 73.96H1750.88ZM1769.68 51.46C1768.76 51.46 1768.3 50.9867 1768.3 50.04V49.14C1768.3 48.22 1768.76 47.76 1769.68 47.76H1770.58C1771.48 47.76 1771.92 48.22 1771.92 49.14V50.04C1771.92 50.9867 1771.48 51.46 1770.58 51.46H1769.68ZM1770.14 74C1769.44 74 1769.08 73.6467 1769.08 72.94V56.14C1769.08 55.4467 1769.44 55.1 1770.14 55.1C1770.84 55.1 1771.18 55.4467 1771.18 56.14V72.94C1771.18 73.6467 1770.84 74 1770.14 74ZM1783.25 82C1781.68 82 1780.48 81.6733 1779.65 81.02C1778.83 80.38 1778.34 79.3667 1778.19 77.98C1778.15 77.6333 1778.23 77.36 1778.41 77.16C1778.6 76.96 1778.86 76.86 1779.19 76.86C1779.53 76.86 1779.78 76.9467 1779.95 77.12C1780.13 77.2933 1780.24 77.5533 1780.29 77.9C1780.39 78.6733 1780.66 79.2 1781.11 79.48C1781.57 79.76 1782.28 79.9 1783.25 79.9H1790.69C1791.87 79.9 1792.66 79.6867 1793.07 79.26C1793.5 78.8333 1793.71 78.0333 1793.71 76.86V71.14C1793.1 72.0733 1792.23 72.7867 1791.11 73.28C1789.99 73.76 1788.57 74 1786.85 74H1785.33C1782.84 74 1781.01 73.4267 1779.85 72.28C1778.69 71.12 1778.11 69.3 1778.11 66.82V62.3C1778.11 59.78 1778.69 57.9533 1779.83 56.82C1780.99 55.6733 1782.83 55.1 1785.33 55.1H1788.61C1789.92 55.1 1790.98 55.2733 1791.79 55.62C1792.61 55.9667 1793.25 56.5067 1793.71 57.24V56.14C1793.71 55.4467 1794.07 55.1 1794.77 55.1C1795.47 55.1 1795.81 55.4467 1795.81 56.14V76.86C1795.81 78.62 1795.4 79.9133 1794.57 80.74C1793.75 81.58 1792.45 82 1790.69 82H1783.25ZM1785.33 71.9H1786.85C1788.93 71.9 1790.59 71.5733 1791.83 70.92C1793.09 70.2667 1793.71 69.2733 1793.71 67.94V61.26C1793.71 59.7533 1793.29 58.7 1792.45 58.1C1791.61 57.5 1790.33 57.2 1788.61 57.2H1785.33C1783.43 57.2 1782.09 57.5733 1781.33 58.32C1780.59 59.0533 1780.21 60.38 1780.21 62.3V66.82C1780.21 68.7 1780.59 70.02 1781.33 70.78C1782.09 71.5267 1783.43 71.9 1785.33 71.9ZM1804.01 74C1803.3 74 1802.95 73.6467 1802.95 72.94V56.14C1802.95 55.4467 1803.3 55.1 1804.01 55.1C1804.7 55.1 1805.05 55.4467 1805.05 56.14V58.06C1806.32 56.0867 1808.61 55.1 1811.93 55.1H1813.05C1815.54 55.1 1817.36 55.68 1818.51 56.84C1819.67 57.9867 1820.25 59.8067 1820.25 62.3V72.94C1820.25 73.6467 1819.9 74 1819.21 74C1818.5 74 1818.15 73.6467 1818.15 72.94V62.3C1818.15 60.3933 1817.77 59.0667 1817.01 58.32C1816.26 57.5733 1814.94 57.2 1813.05 57.2H1811.93C1809.86 57.2 1808.24 57.5267 1807.05 58.18C1805.86 58.8333 1805.2 59.8533 1805.05 61.24V72.94C1805.05 73.6467 1804.7 74 1804.01 74ZM1853.28 55.1C1853.99 55.1 1854.34 55.4467 1854.34 56.14V72.94C1854.34 73.6467 1853.99 74 1853.28 74C1852.59 74 1852.24 73.6467 1852.24 72.94V71.04C1850.98 73.0133 1848.68 74 1845.36 74H1844.24C1841.75 74 1839.92 73.42 1838.76 72.26C1837.62 71.1 1837.04 69.2733 1837.04 66.78V56.14C1837.04 55.4467 1837.39 55.1 1838.08 55.1C1838.79 55.1 1839.14 55.4467 1839.14 56.14V66.78C1839.14 68.6867 1839.52 70.02 1840.26 70.78C1841.02 71.5267 1842.35 71.9 1844.24 71.9H1845.36C1847.43 71.9 1849.06 71.5667 1850.24 70.9C1851.43 70.2333 1852.1 69.2133 1852.24 67.84V56.14C1852.24 55.4467 1852.59 55.1 1853.28 55.1ZM1862.88 82C1862.17 82 1861.82 81.6467 1861.82 80.94V56.14C1861.82 55.4467 1862.17 55.1 1862.88 55.1C1863.57 55.1 1863.92 55.4467 1863.92 56.14V57.92C1864.52 56.9867 1865.38 56.2867 1866.5 55.82C1867.62 55.34 1869.05 55.1 1870.8 55.1H1872.32C1874.81 55.1 1876.63 55.68 1877.78 56.84C1878.94 57.9867 1879.52 59.8067 1879.52 62.3V66.78C1879.52 69.2733 1878.94 71.1 1877.78 72.26C1876.63 73.42 1874.81 74 1872.32 74H1863.92V80.94C1863.92 81.6467 1863.57 82 1862.88 82ZM1863.92 71.9H1872.32C1874.22 71.9 1875.55 71.5267 1876.3 70.78C1877.04 70.02 1877.42 68.6867 1877.42 66.78V62.3C1877.42 60.3933 1877.04 59.0667 1876.3 58.32C1875.55 57.5733 1874.22 57.2 1872.32 57.2H1870.8C1868.66 57.2 1867.02 57.5333 1865.88 58.2C1864.74 58.8667 1864.09 59.8933 1863.92 61.28V71.9Z" fill="#6C6C6C"/>
</svg>
